<svg width="48" height="48" viewBox="0 0 48 48" fill="none" xmlns="http://www.w3.org/2000/svg">
<g clip-path="url(#clip0_953_3679)">
<path d="M37.9854 21.2085C37.9854 15.9925 33.5082 11.7641 27.9854 11.7641H19.9854C14.4625 11.7641 9.98535 15.9925 9.98535 21.2085H37.9854ZM41.9854 21.2085C41.9854 23.295 40.1945 24.9863 37.9854 24.9863H9.98535C7.77621 24.9863 5.98535 23.295 5.98535 21.2085C5.98535 13.9061 12.2534 7.98633 19.9854 7.98633H27.9854C35.7173 7.98633 41.9854 13.9061 41.9854 21.2085Z" fill="#1B1F19"/>
<path d="M35.9854 26.4863C35.9854 25.9893 35.5376 25.5863 34.9854 25.5863H12.9854C12.4331 25.5863 11.9854 25.9893 11.9854 26.4863C11.9854 26.9834 12.4331 27.3863 12.9854 27.3863H34.9854C35.5376 27.3863 35.9854 26.9834 35.9854 26.4863ZM39.9854 26.4863C39.9854 28.9716 37.7468 30.9863 34.9854 30.9863H12.9854C10.2239 30.9863 7.98535 28.9716 7.98535 26.4863C7.98535 24.001 10.2239 21.9863 12.9854 21.9863H34.9854C37.7468 21.9863 39.9854 24.001 39.9854 26.4863Z" fill="#1B1F19"/>
<path d="M9.98535 32.7006V34.5578C9.98535 36.6091 11.7762 38.272 13.9854 38.272H33.9854C36.1945 38.272 37.9854 36.6091 37.9854 34.5578V32.7006H9.98535ZM41.9854 34.5578C41.9854 38.6604 38.4036 41.9863 33.9854 41.9863H13.9854C9.56707 41.9863 5.98535 38.6604 5.98535 34.5578V32.7006C5.98535 30.6493 7.77621 28.9863 9.98535 28.9863H37.9854C40.1945 28.9863 41.9854 30.6493 41.9854 32.7006V34.5578Z" fill="#1B1F19"/>
</g>
<defs>
<clipPath id="clip0_953_3679">
<rect width="48" height="48" fill="white"/>
</clipPath>
</defs>
</svg>
